<svg width="60" height="60" viewBox="0 0 60 60" fill="none" xmlns="http://www.w3.org/2000/svg">
<circle cx="30" cy="30" r="28.5" fill="#D9D9D9" stroke="url(#paint0_linear_49_1742)" stroke-width="3"/>
<path d="M40 36.619V37.7143H20V36.619L22.2222 34.4286V27.8571C22.2222 24.4619 24.4778 21.4719 27.7778 20.5081V20.1905C27.7778 19.6095 28.0119 19.0524 28.4287 18.6416C28.8454 18.2308 29.4106 18 30 18C30.5894 18 31.1546 18.2308 31.5713 18.6416C31.9881 19.0524 32.2222 19.6095 32.2222 20.1905V20.5081C35.5222 21.4719 37.7778 24.4619 37.7778 27.8571V34.4286L40 36.619ZM32.2222 38.8095C32.2222 39.3905 31.9881 39.9476 31.5713 40.3584C31.1546 40.7692 30.5894 41 30 41C29.4106 41 28.8454 40.7692 28.4287 40.3584C28.0119 39.9476 27.7778 39.3905 27.7778 38.8095" fill="black"/>
<defs>
<linearGradient id="paint0_linear_49_1742" x1="30" y1="60" x2="30" y2="0" gradientUnits="userSpaceOnUse">
<stop stop-color="#2A164E"/>
<stop offset="1" stop-color="#6133B4"/>
</linearGradient>
</defs>
</svg>
