<svg width="80" height="80" viewBox="0 0 80 80" fill="none" xmlns="http://www.w3.org/2000/svg">
<circle cx="40" cy="40" r="37.5" fill="black" fill-opacity="0.5" stroke="url(#paint0_linear_49_1692)" stroke-width="5"/>
<path d="M53.3334 48.963V50.4445H26.6667V48.963L29.6297 46.0001V37.1112C29.6297 32.5186 32.6371 28.4741 37.0371 27.1704V26.7408C37.0371 25.955 37.3493 25.2013 37.905 24.6457C38.4606 24.09 39.2143 23.7778 40.0001 23.7778C40.7859 23.7778 41.5395 24.09 42.0952 24.6457C42.6509 25.2013 42.963 25.955 42.963 26.7408V27.1704C47.363 28.4741 50.3705 32.5186 50.3705 37.1112V46.0001L53.3334 48.963ZM42.963 51.926C42.963 52.7118 42.6509 53.4654 42.0952 54.0211C41.5395 54.5768 40.7859 54.8889 40.0001 54.8889C39.2143 54.8889 38.4606 54.5768 37.905 54.0211C37.3493 53.4654 37.0371 52.7118 37.0371 51.926" fill="white"/>
<defs>
<linearGradient id="paint0_linear_49_1692" x1="40" y1="80" x2="40" y2="0" gradientUnits="userSpaceOnUse">
<stop stop-color="#2A164E"/>
<stop offset="1" stop-color="#6133B4"/>
</linearGradient>
</defs>
</svg>
