<svg width="24" height="24" viewBox="0 0 24 24" fill="none" xmlns="http://www.w3.org/2000/svg">
<path d="M0 22.7143C0 23.0553 0.135459 23.3823 0.376577 23.6234C0.617695 23.8645 0.944722 24 1.28571 24H22.7143C23.0553 24 23.3823 23.8645 23.6234 23.6234C23.8645 23.3823 24 23.0553 24 22.7143V7.71429H0V22.7143ZM17.1429 9.64286C17.1429 9.58603 17.1654 9.53152 17.2056 9.49133C17.2458 9.45115 17.3003 9.42857 17.3571 9.42857H19.5C19.5568 9.42857 19.6113 9.45115 19.6515 9.49133C19.6917 9.53152 19.7143 9.58603 19.7143 9.64286V11.7857C19.7143 11.8425 19.6917 11.8971 19.6515 11.9372C19.6113 11.9774 19.5568 12 19.5 12H17.3571C17.3003 12 17.2458 11.9774 17.2056 11.9372C17.1654 11.8971 17.1429 11.8425 17.1429 11.7857V9.64286ZM17.1429 13.9286C17.1429 13.8717 17.1654 13.8172 17.2056 13.777C17.2458 13.7369 17.3003 13.7143 17.3571 13.7143H19.5C19.5568 13.7143 19.6113 13.7369 19.6515 13.777C19.6917 13.8172 19.7143 13.8717 19.7143 13.9286V16.0714C19.7143 16.1283 19.6917 16.1828 19.6515 16.223C19.6113 16.2631 19.5568 16.2857 19.5 16.2857H17.3571C17.3003 16.2857 17.2458 16.2631 17.2056 16.223C17.1654 16.1828 17.1429 16.1283 17.1429 16.0714V13.9286ZM12.8571 9.64286C12.8571 9.58603 12.8797 9.53152 12.9199 9.49133C12.9601 9.45115 13.0146 9.42857 13.0714 9.42857H15.2143C15.2711 9.42857 15.3256 9.45115 15.3658 9.49133C15.406 9.53152 15.4286 9.58603 15.4286 9.64286V11.7857C15.4286 11.8425 15.406 11.8971 15.3658 11.9372C15.3256 11.9774 15.2711 12 15.2143 12H13.0714C13.0146 12 12.9601 11.9774 12.9199 11.9372C12.8797 11.8971 12.8571 11.8425 12.8571 11.7857V9.64286ZM12.8571 13.9286C12.8571 13.8717 12.8797 13.8172 12.9199 13.777C12.9601 13.7369 13.0146 13.7143 13.0714 13.7143H15.2143C15.2711 13.7143 15.3256 13.7369 15.3658 13.777C15.406 13.8172 15.4286 13.8717 15.4286 13.9286V16.0714C15.4286 16.1283 15.406 16.1828 15.3658 16.223C15.3256 16.2631 15.2711 16.2857 15.2143 16.2857H13.0714C13.0146 16.2857 12.9601 16.2631 12.9199 16.223C12.8797 16.1828 12.8571 16.1283 12.8571 16.0714V13.9286ZM12.8571 18.2143C12.8571 18.1575 12.8797 18.1029 12.9199 18.0628C12.9601 18.0226 13.0146 18 13.0714 18H15.2143C15.2711 18 15.3256 18.0226 15.3658 18.0628C15.406 18.1029 15.4286 18.1575 15.4286 18.2143V20.3571C15.4286 20.414 15.406 20.4685 15.3658 20.5087C15.3256 20.5489 15.2711 20.5714 15.2143 20.5714H13.0714C13.0146 20.5714 12.9601 20.5489 12.9199 20.5087C12.8797 20.4685 12.8571 20.414 12.8571 20.3571V18.2143ZM8.57143 13.9286C8.57143 13.8717 8.594 13.8172 8.63419 13.777C8.67438 13.7369 8.72888 13.7143 8.78571 13.7143H10.9286C10.9854 13.7143 11.0399 13.7369 11.0801 13.777C11.1203 13.8172 11.1429 13.8717 11.1429 13.9286V16.0714C11.1429 16.1283 11.1203 16.1828 11.0801 16.223C11.0399 16.2631 10.9854 16.2857 10.9286 16.2857H8.78571C8.72888 16.2857 8.67438 16.2631 8.63419 16.223C8.594 16.1828 8.57143 16.1283 8.57143 16.0714V13.9286ZM8.57143 18.2143C8.57143 18.1575 8.594 18.1029 8.63419 18.0628C8.67438 18.0226 8.72888 18 8.78571 18H10.9286C10.9854 18 11.0399 18.0226 11.0801 18.0628C11.1203 18.1029 11.1429 18.1575 11.1429 18.2143V20.3571C11.1429 20.414 11.1203 20.4685 11.0801 20.5087C11.0399 20.5489 10.9854 20.5714 10.9286 20.5714H8.78571C8.72888 20.5714 8.67438 20.5489 8.63419 20.5087C8.594 20.4685 8.57143 20.414 8.57143 20.3571V18.2143ZM4.28571 13.9286C4.28571 13.8717 4.30829 13.8172 4.34848 13.777C4.38866 13.7369 4.44317 13.7143 4.5 13.7143H6.64286C6.69969 13.7143 6.75419 13.7369 6.79438 13.777C6.83457 13.8172 6.85714 13.8717 6.85714 13.9286V16.0714C6.85714 16.1283 6.83457 16.1828 6.79438 16.223C6.75419 16.2631 6.69969 16.2857 6.64286 16.2857H4.5C4.44317 16.2857 4.38866 16.2631 4.34848 16.223C4.30829 16.1828 4.28571 16.1283 4.28571 16.0714V13.9286ZM4.28571 18.2143C4.28571 18.1575 4.30829 18.1029 4.34848 18.0628C4.38866 18.0226 4.44317 18 4.5 18H6.64286C6.69969 18 6.75419 18.0226 6.79438 18.0628C6.83457 18.1029 6.85714 18.1575 6.85714 18.2143V20.3571C6.85714 20.414 6.83457 20.4685 6.79438 20.5087C6.75419 20.5489 6.69969 20.5714 6.64286 20.5714H4.5C4.44317 20.5714 4.38866 20.5489 4.34848 20.5087C4.30829 20.4685 4.28571 20.414 4.28571 20.3571V18.2143ZM22.7143 1.71429H19.7186V0H17.1471V1.71429H6.85286V0H4.28143V1.71429H1.28571C1.11751 1.71287 0.950698 1.74475 0.794874 1.80809C0.63905 1.87144 0.4973 1.96498 0.377789 2.08335C0.258279 2.20171 0.16337 2.34256 0.0985316 2.49776C0.0336931 2.65297 0.000206084 2.81947 0 2.98768V6H24V2.98768C23.9998 2.81947 23.9663 2.65297 23.9015 2.49776C23.8366 2.34256 23.7417 2.20171 23.6222 2.08335C23.5027 1.96498 23.361 1.87144 23.2051 1.80809C23.0493 1.74475 22.8825 1.71287 22.7143 1.71429Z" fill="black"/>
</svg>
