<svg width="33" height="32" viewBox="0 0 33 32" fill="none" xmlns="http://www.w3.org/2000/svg">
<path fill-rule="evenodd" clip-rule="evenodd" d="M4.20228 1.34258C6.26193 -0.705229 9.6535 -0.341363 11.3781 1.96369L13.5139 4.81369C14.9186 6.68887 14.7933 9.30871 13.1263 10.9656L12.7235 11.3684C12.6778 11.5374 12.6732 11.715 12.71 11.8862C12.8166 12.5767 13.3937 14.039 15.8105 16.4422C18.2272 18.8454 19.6996 19.4208 20.4002 19.5291C20.5768 19.5646 20.7591 19.5594 20.9334 19.5139L21.6239 18.8268C23.1064 17.3544 25.381 17.0785 27.2155 18.0753L30.448 19.8354C33.2185 21.3383 33.9175 25.1022 31.6496 27.3582L29.2447 29.7478C28.4865 30.5009 27.4677 31.1288 26.2255 31.2456C23.1622 31.5316 16.0254 31.1661 8.52298 23.7077C1.52151 16.7451 0.177748 10.6728 0.00681531 7.68062C-0.0778047 6.16761 0.636389 4.88816 1.5469 3.98441L4.20228 1.34258ZM9.34718 3.48516C8.48913 2.3394 6.8915 2.24801 5.99114 3.14329L3.33408 5.78344C2.77558 6.33854 2.50818 6.95119 2.54203 7.53676C2.67742 9.91459 3.76056 15.3929 10.3135 21.9086C17.1881 28.7425 23.5363 28.9473 25.9902 28.7172C26.4912 28.6715 26.9888 28.4108 27.4542 27.9488L29.8574 25.5574C30.8356 24.586 30.6207 22.8158 29.2363 22.0643L26.0038 20.3059C25.1102 19.8219 24.0643 19.981 23.4144 20.6275L22.6444 21.3941L21.7474 20.4938C22.6444 21.3941 22.641 21.3958 22.641 21.3958L22.6393 21.3992L22.6342 21.4043L22.6224 21.4144L22.597 21.4381C22.5256 21.5045 22.4486 21.5645 22.3668 21.6175C22.2314 21.7072 22.052 21.8071 21.8269 21.89C21.37 22.0609 20.7641 22.1523 20.0161 22.0373C18.5488 21.8122 16.6042 20.812 14.0199 18.2429C11.4373 15.6738 10.4286 13.7411 10.2018 12.2755C10.0851 11.5274 10.1781 10.9216 10.3508 10.4646C10.4458 10.2075 10.5818 9.96744 10.7536 9.75381L10.8077 9.69457L10.8314 9.66919L10.8416 9.65903L10.8466 9.65396L10.85 9.65057L11.3374 9.16654C12.0618 8.44389 12.1633 7.24736 11.4813 6.33516L9.34718 3.48516Z" fill="#BCB2CE"/>
</svg>
