<svg width="60" height="60" viewBox="0 0 60 60" fill="none" xmlns="http://www.w3.org/2000/svg">
<circle cx="30" cy="30" r="28.5" fill="#D9D9D9" stroke="url(#paint0_linear_49_513)" stroke-width="3"/>
<path d="M17 35.675C17 35.0021 17.1725 34.3838 17.5176 33.8201C17.8627 33.2565 18.3205 32.8258 18.8909 32.5281C20.1121 31.9146 21.353 31.4546 22.6136 31.1483C23.8742 30.8419 25.1545 30.6883 26.4545 30.6875C27.7545 30.6867 29.0348 30.8403 30.2955 31.1483C31.5561 31.4562 32.797 31.9162 34.0182 32.5281C34.5894 32.825 35.0475 33.2557 35.3926 33.8201C35.7377 34.3846 35.9099 35.0029 35.9091 35.675V36.625C35.9091 37.2781 35.6778 37.8374 35.2154 38.3029C34.7529 38.7684 34.1962 39.0008 33.5455 39H19.3636C18.7136 39 18.1574 38.7676 17.6949 38.3029C17.2324 37.8382 17.0008 37.2789 17 36.625V35.675ZM37.6227 39C37.8394 38.6437 38.0021 38.263 38.1108 37.8576C38.2195 37.4523 38.2735 37.0414 38.2727 36.625V35.4375C38.2727 34.5667 38.0316 33.7303 37.5495 32.9283C37.0673 32.1264 36.3826 31.4388 35.4955 30.8656C36.5 30.9844 37.4455 31.1874 38.3318 31.4748C39.2182 31.7622 40.0455 32.1133 40.8136 32.5281C41.5227 32.924 42.0644 33.3641 42.4386 33.8486C42.8129 34.3331 43 34.8628 43 35.4375V36.625C43 37.2781 42.7688 37.8374 42.3063 38.3029C41.8438 38.7684 41.2872 39.0008 40.6364 39H37.6227ZM26.4545 29.5C25.1545 29.5 24.0417 29.0349 23.1159 28.1047C22.1902 27.1745 21.7273 26.0563 21.7273 24.75C21.7273 23.4438 22.1902 22.3255 23.1159 21.3953C24.0417 20.4651 25.1545 20 26.4545 20C27.7545 20 28.8674 20.4651 29.7932 21.3953C30.7189 22.3255 31.1818 23.4438 31.1818 24.75C31.1818 26.0563 30.7189 27.1745 29.7932 28.1047C28.8674 29.0349 27.7545 29.5 26.4545 29.5ZM38.2727 24.75C38.2727 26.0563 37.8098 27.1745 36.8841 28.1047C35.9583 29.0349 34.8455 29.5 33.5455 29.5C33.3288 29.5 33.053 29.4755 32.7182 29.4264C32.3833 29.3773 32.1076 29.3227 31.8909 29.2625C32.4227 28.6292 32.8316 27.9266 33.1176 27.1547C33.4036 26.3828 33.5462 25.5813 33.5455 24.75C33.5447 23.9188 33.4021 23.1172 33.1176 22.3453C32.8332 21.5735 32.4243 20.8709 31.8909 20.2375C32.1667 20.1386 32.4424 20.0741 32.7182 20.044C32.9939 20.0139 33.2697 19.9992 33.5455 20C34.8455 20 35.9583 20.4651 36.8841 21.3953C37.8098 22.3255 38.2727 23.4438 38.2727 24.75Z" fill="black"/>
<defs>
<linearGradient id="paint0_linear_49_513" x1="30" y1="60" x2="30" y2="0" gradientUnits="userSpaceOnUse">
<stop stop-color="#2A164E"/>
<stop offset="1" stop-color="#6133B4"/>
</linearGradient>
</defs>
</svg>
