<svg width="89" height="89" viewBox="0 0 89 89" fill="none" xmlns="http://www.w3.org/2000/svg">
<g filter="url(#filter0_d_49_1661)">
<circle cx="40" cy="40" r="37.5" fill="black" fill-opacity="0.5" stroke="url(#paint0_linear_49_1661)" stroke-width="5"/>
<path d="M54.8981 25.3304C54.4628 25.0412 53.9623 24.8651 53.4418 24.8181C52.9213 24.771 52.3974 24.8546 51.9173 25.0611L45.5068 27.8084L36.9774 24.2171C36.6425 24.0739 36.2821 24 35.9179 24C35.5538 24 35.1933 24.0739 34.8585 24.2171L27.0294 27.5211C26.4191 27.7866 25.9009 28.2265 25.5398 28.7856C25.1788 29.3447 24.9911 29.9981 25.0003 30.6635V50.8647C24.997 51.4325 25.1347 51.9923 25.4011 52.4937C25.6675 52.9952 26.0543 53.4227 26.5266 53.7378C26.9619 54.027 27.4624 54.2031 27.9829 54.2501C28.5034 54.2972 29.0274 54.2136 29.5074 54.0071L35.9179 51.2598L44.4473 54.8511C44.7815 54.9963 45.1424 55.0697 45.5068 55.0666C45.8709 55.0671 46.2313 54.9938 46.5662 54.8511L54.3953 51.4932C55.0056 51.2278 55.5239 50.7878 55.8849 50.2287C56.2459 49.6696 56.4336 49.0163 56.4244 48.3508V28.2035C56.4277 27.6357 56.29 27.0759 56.0236 26.5745C55.7572 26.073 55.3704 25.6455 54.8981 25.3304ZM37.2647 27.1261L44.16 30.071V51.8523L37.2647 48.9075V27.1261ZM28.448 51.5291C28.3797 51.5685 28.3023 51.5893 28.2235 51.5893C28.1447 51.5893 28.0673 51.5685 27.9991 51.5291C27.8989 51.459 27.8183 51.3645 27.7649 51.2545C27.7115 51.1445 27.687 51.0227 27.6938 50.9006V30.6635C27.6916 30.5201 27.7335 30.3795 27.8138 30.2607C27.8941 30.1419 28.0089 30.0506 28.1427 29.9991L34.5712 27.2159V48.9075L28.448 51.5291ZM53.7309 48.4047C53.7375 48.542 53.7036 48.6782 53.6334 48.7963C53.5631 48.9144 53.4596 49.0093 53.3359 49.0691L46.8535 51.8523V30.1607L52.9767 27.5391C53.045 27.4997 53.1224 27.4789 53.2012 27.4789C53.28 27.4789 53.3574 27.4997 53.4256 27.5391C53.5258 27.6092 53.6064 27.7037 53.6598 27.8137C53.7133 27.9237 53.7377 28.0455 53.7309 28.1676V48.4047Z" fill="white"/>
</g>
<defs>
<filter id="filter0_d_49_1661" x="0" y="0" width="89" height="89" filterUnits="userSpaceOnUse" color-interpolation-filters="sRGB">
<feFlood flood-opacity="0" result="BackgroundImageFix"/>
<feColorMatrix in="SourceAlpha" type="matrix" values="0 0 0 0 0 0 0 0 0 0 0 0 0 0 0 0 0 0 127 0" result="hardAlpha"/>
<feOffset dx="5" dy="5"/>
<feGaussianBlur stdDeviation="2"/>
<feComposite in2="hardAlpha" operator="out"/>
<feColorMatrix type="matrix" values="0 0 0 0 0 0 0 0 0 0 0 0 0 0 0 0 0 0 1 0"/>
<feBlend mode="normal" in2="BackgroundImageFix" result="effect1_dropShadow_49_1661"/>
<feBlend mode="normal" in="SourceGraphic" in2="effect1_dropShadow_49_1661" result="shape"/>
</filter>
<linearGradient id="paint0_linear_49_1661" x1="40" y1="80" x2="40" y2="0" gradientUnits="userSpaceOnUse">
<stop stop-color="#2A164E"/>
<stop offset="1" stop-color="#6133B4"/>
</linearGradient>
</defs>
</svg>
