<svg width="60" height="60" viewBox="0 0 60 60" fill="none" xmlns="http://www.w3.org/2000/svg">
<circle cx="30" cy="30" r="28.5" fill="#D9D9D9" stroke="url(#paint0_linear_49_510)" stroke-width="3"/>
<path d="M40.4236 18.9978C40.0971 18.7809 39.7217 18.6488 39.3314 18.6136C38.941 18.5783 38.548 18.6409 38.188 18.7958L33.3801 20.8563L26.983 18.1628C26.7319 18.0554 26.4616 18 26.1885 18C25.9153 18 25.645 18.0554 25.3939 18.1628L19.5221 20.6408C19.0643 20.8399 18.6757 21.1699 18.4049 21.5892C18.1341 22.0085 17.9933 22.4985 18.0002 22.9976V38.1485C17.9978 38.5744 18.1011 38.9942 18.3009 39.3703C18.5007 39.7464 18.7907 40.067 19.145 40.3033C19.4714 40.5202 19.8468 40.6523 20.2372 40.6876C20.6275 40.7229 21.0205 40.6602 21.3806 40.5053L26.1885 38.4448L32.5855 41.1383C32.8361 41.2472 33.1068 41.3022 33.3801 41.2999C33.6531 41.3003 33.9234 41.2453 34.1747 41.1383L40.0465 38.6199C40.5042 38.4208 40.8929 38.0909 41.1637 37.6715C41.4344 37.2522 41.5752 36.7622 41.5683 36.2631V21.1526C41.5708 20.7267 41.4675 20.3069 41.2677 19.9308C41.0679 19.5548 40.7778 19.2342 40.4236 18.9978ZM27.1985 20.3446L32.37 22.5532V38.8893L27.1985 36.6806V20.3446ZM20.586 38.6468C20.5348 38.6764 20.4768 38.6919 20.4177 38.6919C20.3586 38.6919 20.3005 38.6764 20.2493 38.6468C20.1742 38.5943 20.1137 38.5234 20.0737 38.4409C20.0336 38.3584 20.0152 38.267 20.0204 38.1755V22.9976C20.0187 22.8901 20.0501 22.7847 20.1103 22.6955C20.1705 22.6064 20.2567 22.5379 20.357 22.4994L25.1784 20.4119V36.6806L20.586 38.6468ZM39.5482 36.3035C39.5531 36.4065 39.5277 36.5086 39.475 36.5972C39.4223 36.6858 39.3447 36.757 39.2519 36.8018L34.3901 38.8893V22.6206L38.9825 20.6543C39.0337 20.6248 39.0918 20.6092 39.1509 20.6092C39.21 20.6092 39.2681 20.6248 39.3192 20.6543C39.3944 20.7069 39.4548 20.7778 39.4949 20.8603C39.535 20.9428 39.5533 21.0341 39.5482 21.1257V36.3035Z" fill="black"/>
<defs>
<linearGradient id="paint0_linear_49_510" x1="30" y1="60" x2="30" y2="0" gradientUnits="userSpaceOnUse">
<stop stop-color="#2A164E"/>
<stop offset="1" stop-color="#6133B4"/>
</linearGradient>
</defs>
</svg>
