<svg width="80" height="80" viewBox="0 0 80 80" fill="none" xmlns="http://www.w3.org/2000/svg">
<circle cx="40" cy="40" r="37.5" fill="black" fill-opacity="0.5" stroke="url(#paint0_linear_49_1708)" stroke-width="5"/>
<path d="M39.7528 30.8276C38.515 30.8276 37.3049 31.1947 36.2757 31.8824C35.2465 32.5701 34.4443 33.5476 33.9706 34.6912C33.4969 35.8348 33.3729 37.0933 33.6144 38.3073C33.8559 39.5214 34.452 40.6366 35.3273 41.5119C36.2026 42.3872 37.3177 42.9832 38.5318 43.2247C39.7459 43.4662 41.0043 43.3423 42.1479 42.8686C43.2915 42.3949 44.269 41.5927 44.9567 40.5634C45.6444 39.5342 46.0115 38.3242 46.0115 37.0863C46.0096 35.427 45.3496 33.8362 44.1763 32.6628C43.003 31.4895 41.4121 30.8295 39.7528 30.8276ZM39.7528 39.9312C39.1902 39.9312 38.6401 39.7643 38.1723 39.4517C37.7045 39.1391 37.3398 38.6948 37.1245 38.175C36.9092 37.6552 36.8529 37.0832 36.9626 36.5313C37.0724 35.9795 37.3433 35.4726 37.7412 35.0747C38.1391 34.6768 38.646 34.4059 39.1978 34.2961C39.7497 34.1864 40.3217 34.2427 40.8415 34.458C41.3613 34.6733 41.8056 35.038 42.1182 35.5058C42.4308 35.9736 42.5977 36.5237 42.5977 37.0863C42.5977 37.8408 42.2979 38.5644 41.7644 39.0979C41.2309 39.6314 40.5073 39.9312 39.7528 39.9312ZM39.7528 24C36.2833 24.0038 32.9569 25.3837 30.5036 27.8371C28.0502 30.2904 26.6703 33.6168 26.6665 37.0863C26.6665 48.0902 38.2792 56.346 38.7742 56.6916C39.061 56.8923 39.4027 57 39.7528 57C40.1029 57 40.4446 56.8923 40.7314 56.6916C42.9309 55.0706 44.9432 53.2101 46.7312 51.1441C50.7268 46.5554 52.8391 41.6907 52.8391 37.0863C52.8354 33.6168 51.4554 30.2904 49.0021 27.8371C46.5487 25.3837 43.2224 24.0038 39.7528 24ZM44.205 48.8512C42.8487 50.409 41.359 51.8455 39.7528 53.1441C38.1466 51.8455 36.6569 50.409 35.3006 48.8512C32.9252 46.1002 30.0803 41.8244 30.0803 37.0863C30.0803 34.521 31.0994 32.0608 32.9133 30.2468C34.7273 28.4329 37.1875 27.4138 39.7528 27.4138C42.3181 27.4138 44.7784 28.4329 46.5923 30.2468C48.4062 32.0608 49.4253 34.521 49.4253 37.0863C49.4253 41.8244 46.5805 46.1002 44.205 48.8512Z" fill="white"/>
<defs>
<linearGradient id="paint0_linear_49_1708" x1="40" y1="80" x2="40" y2="0" gradientUnits="userSpaceOnUse">
<stop stop-color="#2A164E"/>
<stop offset="1" stop-color="#6133B4"/>
</linearGradient>
</defs>
</svg>
