<svg width="60" height="60" viewBox="0 0 60 60" fill="none" xmlns="http://www.w3.org/2000/svg">
<circle cx="30" cy="30" r="28.5" fill="#D9D9D9" stroke="url(#paint0_linear_49_512)" stroke-width="3"/>
<path d="M29.8147 23.1207C28.8863 23.1207 27.9788 23.396 27.2069 23.9118C26.435 24.4276 25.8333 25.1607 25.478 26.0184C25.1228 26.8761 25.0298 27.8199 25.2109 28.7305C25.392 29.641 25.8391 30.4774 26.4956 31.1339C27.152 31.7904 27.9884 32.2374 28.899 32.4185C29.8095 32.5997 30.7533 32.5067 31.6111 32.1514C32.4688 31.7961 33.2019 31.1945 33.7177 30.4226C34.2334 29.6507 34.5087 28.7431 34.5087 27.8147C34.5073 26.5702 34.0123 25.3771 33.1323 24.4971C32.2523 23.6171 31.0592 23.1221 29.8147 23.1207ZM29.8147 29.9484C29.3927 29.9484 28.9802 29.8232 28.6293 29.5888C28.2785 29.3543 28.005 29.0211 27.8435 28.6312C27.682 28.2414 27.6398 27.8124 27.7221 27.3985C27.8044 26.9846 28.0076 26.6044 28.306 26.306C28.6044 26.0076 28.9846 25.8044 29.3985 25.7221C29.8124 25.6398 30.2414 25.682 30.6312 25.8435C31.0211 26.005 31.3543 26.2785 31.5888 26.6293C31.8232 26.9802 31.9484 27.3927 31.9484 27.8147C31.9484 28.3806 31.7236 28.9233 31.3234 29.3234C30.9233 29.7236 30.3806 29.9484 29.8147 29.9484ZM29.8147 18C27.2126 18.0028 24.7178 19.0378 22.8778 20.8778C21.0378 22.7178 20.0028 25.2126 20 27.8147C20 36.0676 28.7095 42.2595 29.0808 42.5187C29.2959 42.6693 29.5521 42.75 29.8147 42.75C30.0773 42.75 30.3336 42.6693 30.5487 42.5187C32.1983 41.303 33.7075 39.9075 35.0485 38.3581C38.0452 34.9165 39.6295 31.268 39.6295 27.8147C39.6266 25.2126 38.5917 22.7178 36.7517 20.8778C34.9117 19.0378 32.4169 18.0028 29.8147 18ZM33.1539 36.6384C32.1367 37.8068 31.0194 38.8841 29.8147 39.8581C28.6101 38.8841 27.4928 37.8068 26.4756 36.6384C24.694 34.5752 22.5604 31.3683 22.5604 27.8147C22.5604 25.8908 23.3247 24.0456 24.6851 22.6851C26.0456 21.3247 27.8908 20.5604 29.8147 20.5604C31.7387 20.5604 33.5839 21.3247 34.9443 22.6851C36.3048 24.0456 37.0691 25.8908 37.0691 27.8147C37.0691 31.3683 34.9355 34.5752 33.1539 36.6384Z" fill="black"/>
<defs>
<linearGradient id="paint0_linear_49_512" x1="30" y1="60" x2="30" y2="0" gradientUnits="userSpaceOnUse">
<stop stop-color="#2A164E"/>
<stop offset="1" stop-color="#6133B4"/>
</linearGradient>
</defs>
</svg>
