<svg width="101" height="36" viewBox="0 0 101 36" fill="none" xmlns="http://www.w3.org/2000/svg">
<path d="M0.0839844 4.65V-2.38419e-06H13.834V4.65H9.33399V35H4.58398V4.65H0.0839844ZM18.8152 10V12.2L20.1652 10H23.5152V14.85H18.8152V35H14.0652V14.65H12.8652L13.3652 10H18.8152ZM29.841 35C28.3077 35 27.0743 34.5667 26.141 33.7C25.241 32.8 24.791 31.6833 24.791 30.35V14.65C24.791 13.2833 25.241 12.1667 26.141 11.3C27.0743 10.4333 28.3077 10 29.841 10H30.041C30.941 10 31.741 10.2167 32.441 10.65V10H37.191V30.35H37.891L38.391 35H32.441V33.05L31.191 35H29.841ZM29.791 14.65C29.6243 14.65 29.541 14.7333 29.541 14.9V30.1C29.541 30.2667 29.6243 30.35 29.791 30.35H32.441V14.65H29.791ZM38.8906 10H43.2906L46.0906 26.15L48.8906 10H53.2906L48.4906 35H43.6906L38.8906 10ZM63.0215 14.7C63.0215 14.5333 62.9382 14.45 62.7715 14.45H59.7715C59.6048 14.45 59.5215 14.5333 59.5215 14.7V30.3C59.5215 30.4667 59.6048 30.55 59.7715 30.55H62.7715C62.9382 30.55 63.0215 30.4833 63.0215 30.35V14.7ZM54.7715 30.55V14.45C54.7715 13.05 55.2048 11.9333 56.0715 11.1C56.9382 10.2333 58.0715 9.8 59.4715 9.8H63.0715C64.4715 9.8 65.6048 10.2333 66.4715 11.1C67.3382 11.9333 67.7715 13.05 67.7715 14.45V30.55C67.7715 31.95 67.3382 33.0833 66.4715 33.95C65.6048 34.7833 64.4715 35.2 63.0715 35.2H59.4715C58.0715 35.2 56.9382 34.7833 56.0715 33.95C55.2048 33.0833 54.7715 31.95 54.7715 30.55ZM74.2617 3.35L74.7617 8H70.0117V3.35H74.2617ZM74.7617 10V35H70.0117V14.65H69.2617L69.7617 10H74.7617ZM82.1941 10V12.2L83.5441 10H86.8941V14.85H82.1941V35H77.4441V14.65H76.2441L76.7441 10H82.1941ZM88.4141 30.55V14.45C88.4141 13.05 88.8474 11.9333 89.7141 11.1C90.5807 10.2333 91.7141 9.8 93.1141 9.8H96.2141C97.6141 9.8 98.7474 10.2333 99.6141 11.1C100.481 11.9333 100.914 13.05 100.914 14.45V20.6H96.1641V14.7C96.1641 14.5333 96.0807 14.45 95.9141 14.45H93.4141C93.2474 14.45 93.1641 14.5333 93.1641 14.7V20.6H100.914V25.25H93.1641V30.3C93.1641 30.4667 93.2474 30.55 93.4141 30.55H95.9141C96.0807 30.55 96.1641 30.4833 96.1641 30.35V27.6H100.914V30.55C100.914 31.95 100.481 33.0833 99.6141 33.95C98.7474 34.7833 97.6141 35.2 96.2141 35.2H93.1141C91.7141 35.2 90.5807 34.7833 89.7141 33.95C88.8474 33.0833 88.4141 31.95 88.4141 30.55Z" fill="white"/>
</svg>
