<svg width="34" height="34" viewBox="0 0 34 34" fill="none" xmlns="http://www.w3.org/2000/svg">
<path d="M2 28.25C2 26.2609 2.79018 24.3532 4.1967 22.9467C5.60322 21.5402 7.51088 20.75 9.5 20.75H24.5C26.4891 20.75 28.3968 21.5402 29.8033 22.9467C31.2098 24.3532 32 26.2609 32 28.25C32 29.2446 31.6049 30.1984 30.9016 30.9016C30.1984 31.6049 29.2446 32 28.25 32H5.75C4.75544 32 3.80161 31.6049 3.09835 30.9016C2.39509 30.1984 2 29.2446 2 28.25Z" stroke="#BCB2CE" stroke-width="3" stroke-linejoin="round"/>
<path d="M17 13.25C20.1066 13.25 22.625 10.7316 22.625 7.625C22.625 4.5184 20.1066 2 17 2C13.8934 2 11.375 4.5184 11.375 7.625C11.375 10.7316 13.8934 13.25 17 13.25Z" stroke="#BCB2CE" stroke-width="3"/>
</svg>
