<svg width="35" height="35" viewBox="0 0 35 35" fill="none" xmlns="http://www.w3.org/2000/svg">
<path d="M0 1.09375C0 0.803669 0.115234 0.52547 0.320352 0.320352C0.52547 0.115234 0.803669 0 1.09375 0L7.65625 0C7.94633 0 8.22453 0.115234 8.42965 0.320352C8.63477 0.52547 8.75 0.803669 8.75 1.09375C8.75 1.38383 8.63477 1.66203 8.42965 1.86715C8.22453 2.07227 7.94633 2.1875 7.65625 2.1875H2.1875V7.65625C2.1875 7.94633 2.07227 8.22453 1.86715 8.42965C1.66203 8.63477 1.38383 8.75 1.09375 8.75C0.803669 8.75 0.52547 8.63477 0.320352 8.42965C0.115234 8.22453 0 7.94633 0 7.65625V1.09375ZM26.25 1.09375C26.25 0.803669 26.3652 0.52547 26.5704 0.320352C26.7755 0.115234 27.0537 0 27.3438 0L33.9062 0C34.1963 0 34.4745 0.115234 34.6796 0.320352C34.8848 0.52547 35 0.803669 35 1.09375V7.65625C35 7.94633 34.8848 8.22453 34.6796 8.42965C34.4745 8.63477 34.1963 8.75 33.9062 8.75C33.6162 8.75 33.338 8.63477 33.1329 8.42965C32.9277 8.22453 32.8125 7.94633 32.8125 7.65625V2.1875H27.3438C27.0537 2.1875 26.7755 2.07227 26.5704 1.86715C26.3652 1.66203 26.25 1.38383 26.25 1.09375ZM1.09375 26.25C1.38383 26.25 1.66203 26.3652 1.86715 26.5704C2.07227 26.7755 2.1875 27.0537 2.1875 27.3438V32.8125H7.65625C7.94633 32.8125 8.22453 32.9277 8.42965 33.1329C8.63477 33.338 8.75 33.6162 8.75 33.9062C8.75 34.1963 8.63477 34.4745 8.42965 34.6796C8.22453 34.8848 7.94633 35 7.65625 35H1.09375C0.803669 35 0.52547 34.8848 0.320352 34.6796C0.115234 34.4745 0 34.1963 0 33.9062V27.3438C0 27.0537 0.115234 26.7755 0.320352 26.5704C0.52547 26.3652 0.803669 26.25 1.09375 26.25ZM33.9062 26.25C34.1963 26.25 34.4745 26.3652 34.6796 26.5704C34.8848 26.7755 35 27.0537 35 27.3438V33.9062C35 34.1963 34.8848 34.4745 34.6796 34.6796C34.4745 34.8848 34.1963 35 33.9062 35H27.3438C27.0537 35 26.7755 34.8848 26.5704 34.6796C26.3652 34.4745 26.25 34.1963 26.25 33.9062C26.25 33.6162 26.3652 33.338 26.5704 33.1329C26.7755 32.9277 27.0537 32.8125 27.3438 32.8125H32.8125V27.3438C32.8125 27.0537 32.9277 26.7755 33.1329 26.5704C33.338 26.3652 33.6162 26.25 33.9062 26.25ZM8.75 8.75H10.9375V10.9375H8.75V8.75Z" fill="#BCB2CE"/>
<path d="M15.3125 4.375H4.375V15.3125H15.3125V4.375ZM6.5625 6.5625H13.125V13.125H6.5625V6.5625ZM10.9375 24.0625H8.75V26.25H10.9375V24.0625Z" fill="#BCB2CE"/>
<path d="M15.3125 19.6875H4.375V30.625H15.3125V19.6875ZM6.5625 21.875H13.125V28.4375H6.5625V21.875ZM24.0625 8.75H26.25V10.9375H24.0625V8.75Z" fill="#BCB2CE"/>
<path d="M19.6875 4.375H30.625V15.3125H19.6875V4.375ZM21.875 6.5625V13.125H28.4375V6.5625H21.875ZM17.5 17.5V21.875H19.6875V24.0625H17.5V26.25H21.875V21.875H24.0625V26.25H26.25V24.0625H30.625V21.875H24.0625V17.5H17.5ZM21.875 21.875H19.6875V19.6875H21.875V21.875ZM30.625 26.25H28.4375V28.4375H24.0625V30.625H30.625V26.25ZM21.875 30.625V28.4375H17.5V30.625H21.875Z" fill="#BCB2CE"/>
<path d="M26.25 19.6875H30.625V17.5H26.25V19.6875Z" fill="#BCB2CE"/>
</svg>
