<svg width="45" height="45" viewBox="0 0 45 45" fill="none" xmlns="http://www.w3.org/2000/svg">
<circle cx="22.5" cy="22.5" r="22" fill="#D9D9D9" stroke="#3A3939"/>
<path d="M13.194 19.194C13.4783 18.9097 13.8639 18.75 14.266 18.75C14.6681 18.75 15.0537 18.9097 15.3381 19.194L22.844 26.6999L30.3499 19.194C30.6359 18.9178 31.0189 18.7649 31.4165 18.7684C31.8141 18.7718 32.1944 18.9313 32.4755 19.2124C32.7567 19.4936 32.9161 19.8739 32.9196 20.2715C32.923 20.6691 32.7702 21.0521 32.494 21.3381L23.916 29.916C23.6317 30.2003 23.2461 30.36 22.844 30.36C22.4419 30.36 22.0563 30.2003 21.7719 29.916L13.194 21.3381C12.9097 21.0537 12.75 20.6681 12.75 20.266C12.75 19.8639 12.9097 19.4783 13.194 19.194Z" fill="black"/>
</svg>
