<svg width="37" height="42" viewBox="0 0 37 42" fill="none" xmlns="http://www.w3.org/2000/svg">
<path d="M32.8889 37.4445H4.11111V14.8333H32.8889M26.7222 0.444458V4.55557H10.2778V0.444458H6.16667V4.55557H4.11111C1.85 4.55557 0 6.40557 0 8.66668V37.4445C0 38.5348 0.433134 39.5805 1.20412 40.3515C1.9751 41.1224 3.02078 41.5556 4.11111 41.5556H32.8889C35.1706 41.5556 37 39.7261 37 37.4445V8.66668C37 7.57635 36.5669 6.53067 35.7959 5.75969C35.0249 4.9887 33.9792 4.55557 32.8889 4.55557H30.8333V0.444458M16.1978 23.0556H8.77722L14.7794 27.3928L12.4978 34.4845L18.5 30.1061L24.5022 34.4845L22.2 27.4133L28.2022 23.0556H20.8022L18.5 15.9845L16.1978 23.0556Z" fill="black"/>
</svg>
