<svg width="37" height="54" viewBox="0 0 37 54" fill="none" xmlns="http://www.w3.org/2000/svg">
<path d="M18.5 12.4643C20.2523 12.4643 21.9329 13.1604 23.172 14.3995C24.411 15.6385 25.1071 17.3191 25.1071 19.0714C25.1071 19.9391 24.9362 20.7982 24.6042 21.5999C24.2722 22.4015 23.7855 23.1298 23.172 23.7434C22.5584 24.3569 21.8301 24.8436 21.0284 25.1756C20.2268 25.5077 19.3677 25.6786 18.5 25.6786C16.7477 25.6786 15.0671 24.9824 13.828 23.7434C12.589 22.5043 11.8929 20.8237 11.8929 19.0714C11.8929 17.3191 12.589 15.6385 13.828 14.3995C15.0671 13.1604 16.7477 12.4643 18.5 12.4643ZM18.5 0.571411C23.4065 0.571411 28.1121 2.52051 31.5815 5.98994C35.0509 9.45936 37 14.1649 37 19.0714C37 32.9464 18.5 53.4286 18.5 53.4286C18.5 53.4286 0 32.9464 0 19.0714C0 14.1649 1.9491 9.45936 5.41852 5.98994C8.88795 2.52051 13.5935 0.571411 18.5 0.571411ZM18.5 5.85713C14.9954 5.85713 11.6342 7.24934 9.15609 9.7275C6.67793 12.2057 5.28571 15.5668 5.28571 19.0714C5.28571 21.7143 5.28571 27 18.5 44.7336C31.7143 27 31.7143 21.7143 31.7143 19.0714C31.7143 15.5668 30.3221 12.2057 27.8439 9.7275C25.3658 7.24934 22.0046 5.85713 18.5 5.85713Z" fill="black"/>
</svg>
