<svg width="37" height="40" viewBox="0 0 37 40" fill="none" xmlns="http://www.w3.org/2000/svg">
<path d="M36.4049 1.67584C36.2943 1.40026 36.0816 1.17796 35.8112 1.05517C35.5409 0.932379 35.2336 0.918558 34.9532 1.01658C34.6729 1.1146 34.4412 1.31693 34.3063 1.58145C34.1713 1.84598 34.1436 2.15235 34.2288 2.43683C36.0006 7.52916 32.4836 11.3322 29.8021 13.3691L28.7187 11.8166C28.3545 11.296 27.5401 10.863 26.9069 10.8554L20.8266 10.8821C20.0838 10.9043 19.3608 11.1271 18.7343 11.5267L0.817738 24.0897C0.400996 24.383 0.117436 24.8294 0.0291431 25.3313C-0.0591502 25.8332 0.0550176 26.3496 0.34665 26.7675L8.48865 38.4169C9.09897 39.2847 10.0736 39.1798 10.9433 38.5733L28.8599 26.0084C29.3748 25.6441 29.9699 24.8583 30.1797 24.2575L32.0831 18.2593C32.2929 17.6604 32.1651 16.7468 31.8008 16.2262L31.1409 15.2802C34.7418 12.5204 38.48 7.64359 36.4049 1.67584ZM28.0684 19.5238C27.4014 19.9894 26.577 20.1714 25.7761 20.0298C24.9751 19.8882 24.263 19.4346 23.7962 18.7685C23.3287 18.1003 23.1456 17.274 23.2868 16.4709C23.428 15.6677 23.8822 14.9535 24.5495 14.4849C25.073 14.1191 25.6975 13.9257 26.3361 13.9315C26.9746 13.9373 27.5955 14.1421 28.1122 14.5173C27.5935 14.8301 27.2368 15.0132 27.1701 15.0418C26.9336 15.1545 26.7425 15.3442 26.628 15.5798C26.5135 15.8153 26.4824 16.0828 26.5398 16.3383C26.5972 16.5939 26.7397 16.8224 26.944 16.9863C27.1482 17.1503 27.4021 17.24 27.664 17.2408C27.8293 17.2408 27.9927 17.2033 28.1542 17.1283C28.5255 16.9541 28.919 16.7443 29.3348 16.4989C29.4288 17.0711 29.3599 17.6583 29.136 18.1932C28.912 18.7281 28.5421 19.1892 28.0684 19.5238Z" fill="black"/>
</svg>
