<svg width="37" height="30" viewBox="0 0 37 30" fill="none" xmlns="http://www.w3.org/2000/svg">
<path d="M18.5 0H5.55C4.07805 0 2.66638 0.592632 1.62556 1.64752C0.584731 2.70242 0 4.13316 0 5.625V20.625C0 22.1168 0.584731 23.5476 1.62556 24.6025C2.66638 25.6574 4.07805 26.25 5.55 26.25L3.7 28.125V30H5.55L9.25 26.1937L12.95 26.25V16.875H3.7V3.75H20.35V7.5H24.05V5.625C24.05 4.13316 23.4653 2.70242 22.4244 1.64752C21.3836 0.592632 19.972 0 18.5 0ZM5.55 18.75C6.04065 18.75 6.5112 18.9475 6.85815 19.2992C7.20509 19.6508 7.4 20.1277 7.4 20.625C7.4 21.1223 7.20509 21.5992 6.85815 21.9508C6.5112 22.3025 6.04065 22.5 5.55 22.5C5.05935 22.5 4.5888 22.3025 4.24185 21.9508C3.89491 21.5992 3.7 21.1223 3.7 20.625C3.7 20.1277 3.89491 19.6508 4.24185 19.2992C4.5888 18.9475 5.05935 18.75 5.55 18.75ZM34.3545 10.6125C34.0955 9.8625 33.3925 9.375 32.56 9.375H19.2585C18.4075 9.375 17.723 9.8625 17.4455 10.6125L14.8 18.3188V28.65C14.8 29.3625 15.392 30 16.095 30H17.242C17.945 30 18.5 29.2875 18.5 28.575V26.25H33.3V28.575C33.3 29.2875 33.8735 30 34.5765 30H35.705C36.408 30 37 29.3625 37 28.65V18.3188L34.3545 10.6125ZM19.2585 11.25H32.56L34.4655 16.875H17.353L19.2585 11.25ZM18.5 22.5C18.0093 22.5 17.5388 22.3025 17.1919 21.9508C16.8449 21.5992 16.65 21.1223 16.65 20.625C16.65 20.1277 16.8449 19.6508 17.1919 19.2992C17.5388 18.9475 18.0093 18.75 18.5 18.75C18.9907 18.75 19.4612 18.9475 19.8081 19.2992C20.1551 19.6508 20.35 20.1277 20.35 20.625C20.35 21.1223 20.1551 21.5992 19.8081 21.9508C19.4612 22.3025 18.9907 22.5 18.5 22.5ZM33.3 22.5C32.8093 22.5 32.3388 22.3025 31.9919 21.9508C31.6449 21.5992 31.45 21.1223 31.45 20.625C31.45 20.1277 31.6449 19.6508 31.9919 19.2992C32.3388 18.9475 32.8093 18.75 33.3 18.75C33.7907 18.75 34.2612 18.9475 34.6081 19.2992C34.9551 19.6508 35.15 20.1277 35.15 20.625C35.15 21.1223 34.9551 21.5992 34.6081 21.9508C34.2612 22.3025 33.7907 22.5 33.3 22.5Z" fill="black"/>
</svg>
