<svg width="37" height="38" viewBox="0 0 37 38" fill="none" xmlns="http://www.w3.org/2000/svg">
<path d="M20.3474 33.7999C20.8381 33.7999 21.3086 33.9948 21.6556 34.3417C22.0026 34.6887 22.1975 35.1593 22.1975 35.65C22.1975 36.1406 22.0026 36.6112 21.6556 36.9582C21.3086 37.3051 20.8381 37.5 20.3474 37.5C19.8567 37.5 19.3861 37.3051 19.0392 36.9582C18.6922 36.6112 18.4973 36.1406 18.4973 35.65C18.4973 35.1593 18.6922 34.6887 19.0392 34.3417C19.3861 33.9948 19.8567 33.7999 20.3474 33.7999ZM13.8721 31.9498C14.3628 31.9498 14.8333 32.1447 15.1803 32.4917C15.5273 32.8386 15.7222 33.3092 15.7222 33.7999C15.7222 34.2905 15.5273 34.7611 15.1803 35.1081C14.8333 35.455 14.3628 35.65 13.8721 35.65C13.3814 35.65 12.9108 35.455 12.5639 35.1081C12.2169 34.7611 12.022 34.2905 12.022 33.7999C12.022 33.3092 12.2169 32.8386 12.5639 32.4917C12.9108 32.1447 13.3814 31.9498 13.8721 31.9498ZM26.8227 31.9498C27.3134 31.9498 27.7839 32.1447 28.1309 32.4917C28.4779 32.8386 28.6728 33.3092 28.6728 33.7999C28.6728 34.2905 28.4779 34.7611 28.1309 35.1081C27.7839 35.455 27.3134 35.65 26.8227 35.65C26.332 35.65 25.8614 35.455 25.5145 35.1081C25.1675 34.7611 24.9726 34.2905 24.9726 33.7999C24.9726 33.3092 25.1675 32.8386 25.5145 32.4917C25.8614 32.1447 26.332 31.9498 26.8227 31.9498ZM20.3511 7.91533C26.2122 7.91533 29.5386 11.795 30.0215 16.4812H30.1695C31.0654 16.48 31.9528 16.6553 32.781 16.9971C33.6092 17.3389 34.3619 17.8405 34.9962 18.4732C35.6305 19.106 36.1339 19.8575 36.4778 20.6848C36.8216 21.5122 36.999 22.3991 37 23.2951C36.9988 24.1909 36.8211 25.0776 36.4772 25.9048C36.1333 26.7319 35.6298 27.4832 34.9956 28.1157C34.3613 28.7483 33.6086 29.2497 32.7806 29.5914C31.9525 29.9331 31.0653 30.1083 30.1695 30.1071H10.5308C9.63505 30.1083 8.7478 29.9331 7.91975 29.5914C7.09169 29.2497 6.33903 28.7483 5.70476 28.1157C5.07049 27.4832 4.56702 26.7319 4.2231 25.9048C3.87917 25.0776 3.70153 24.1909 3.70032 23.2951C3.70129 22.3991 3.87875 21.5122 4.22257 20.6848C4.56638 19.8575 5.06981 19.106 5.70411 18.4732C6.3384 17.8405 7.09114 17.3389 7.91932 16.9971C8.7475 16.6553 9.6349 16.48 10.5308 16.4812H10.6788C11.1654 11.7635 14.49 7.91533 20.3511 7.91533ZM4.3756 15.6024C4.50426 15.9123 4.51629 16.2582 4.40949 16.5763C4.30268 16.8943 4.08427 17.1629 3.79468 17.3323L3.62632 17.4155L1.91129 18.1259C1.58687 18.2582 1.22443 18.2628 0.896746 18.1389C0.569059 18.015 0.300378 17.7717 0.144641 17.4578C-0.0110968 17.144 -0.0423621 16.7829 0.057121 16.447C0.156604 16.1111 0.379471 15.8252 0.680982 15.6468L0.84934 15.5617L2.56437 14.8513C2.73274 14.7816 2.91319 14.7457 3.09543 14.7457C3.27768 14.7457 3.45813 14.7816 3.6265 14.8513C3.79486 14.9211 3.94784 15.0233 4.07669 15.1522C4.20554 15.2811 4.30589 15.4341 4.3756 15.6024ZM16.379 6.66097L16.0626 6.76828C12.7602 7.93383 10.3958 10.4777 9.37453 13.8412L9.24503 14.3037L9.13587 14.744L8.75475 14.8161C7.64732 15.0468 6.59697 15.4958 5.66511 16.1371C4.81716 14.6797 4.50042 12.9734 4.7688 11.3087C5.03718 9.64407 5.8741 8.12382 7.13712 7.00671C8.40014 5.88959 10.0112 5.24464 11.6962 5.18161C13.3812 5.11857 15.036 5.64135 16.379 6.66097ZM1.73923 6.71833L1.93349 6.78308L3.64667 7.49351C3.96796 7.62895 4.22649 7.88039 4.3708 8.19779C4.51512 8.51519 4.53466 8.87529 4.42552 9.20644C4.31638 9.53759 4.08656 9.81552 3.78181 9.98491C3.47705 10.1543 3.11969 10.2028 2.78083 10.1206L2.58472 10.0577L0.871541 9.3473C0.549396 9.21226 0.290034 8.96069 0.145236 8.64281C0.000438696 8.32493 -0.0191404 7.96413 0.0904078 7.63245C0.199956 7.30077 0.430571 7.02261 0.736211 6.8535C1.04185 6.68439 1.40003 6.63493 1.73923 6.71833ZM8.79731 1.19582L8.88056 1.36418L9.59099 3.07736C9.72514 3.40207 9.73112 3.76558 9.60772 4.09452C9.48433 4.42347 9.24074 4.69336 8.92613 4.84973C8.61152 5.0061 8.2493 5.0373 7.91258 4.93704C7.57586 4.83677 7.28971 4.61251 7.11188 4.30952L7.02677 4.13931L6.31634 2.42613C6.18411 2.10171 6.17949 1.73927 6.30342 1.41159C6.42734 1.0839 6.67063 0.815218 6.98445 0.659481C7.29826 0.503743 7.65938 0.472478 7.99529 0.571961C8.33121 0.671444 8.61891 0.894312 8.79731 1.19582ZM16.8489 0.605645C17.1564 0.732807 17.408 0.966245 17.5577 1.2634C17.7075 1.56056 17.7455 1.90164 17.6648 2.22447L17.6 2.41873L16.8914 4.13191C16.758 4.45618 16.5067 4.71789 16.1881 4.86442C15.8695 5.01095 15.5073 5.03143 15.1742 4.92174C14.8412 4.81204 14.562 4.58032 14.3928 4.27316C14.2237 3.96599 14.1771 3.60618 14.2625 3.26607L14.3272 3.06996L15.0358 1.35678C15.1055 1.1884 15.2077 1.0354 15.3366 0.90652C15.4654 0.777641 15.6184 0.675406 15.7867 0.605655C15.9551 0.535904 16.1356 0.500002 16.3178 0.5C16.5001 0.499998 16.6805 0.535897 16.8489 0.605645Z" fill="black"/>
</svg>
